<svg width="40" height="48" viewBox="0 0 40 48" fill="none" xmlns="http://www.w3.org/2000/svg">
<mask id="path-1-inside-1_404_9866" fill="white">
<path fill-rule="evenodd" clip-rule="evenodd" d="M39.9937 20.5062C39.9979 20.338 40 20.1692 40 20C40 8.9543 31.0457 0 20 0C8.9543 0 0 8.9543 0 20C0 20.1692 0.00210212 20.338 0.00628167 20.5062C0.00210212 20.6745 0 20.8432 0 21.0125C0 32.0581 11.0809 43 20 48C29.0809 43 40 32.0581 40 21.0125C40 20.8432 39.9979 20.6745 39.9937 20.5062Z"/>
</mask>
<path fill-rule="evenodd" clip-rule="evenodd" d="M39.9937 20.5062C39.9979 20.338 40 20.1692 40 20C40 8.9543 31.0457 0 20 0C8.9543 0 0 8.9543 0 20C0 20.1692 0.00210212 20.338 0.00628167 20.5062C0.00210212 20.6745 0 20.8432 0 21.0125C0 32.0581 11.0809 43 20 48C29.0809 43 40 32.0581 40 21.0125C40 20.8432 39.9979 20.6745 39.9937 20.5062Z" fill="white"/>
<path d="M39.9937 20.5062L37.9943 20.4565L37.9931 20.5062L37.9943 20.5559L39.9937 20.5062ZM0.00628167 20.5062L2.00566 20.5559L2.0069 20.5062L2.00566 20.4566L0.00628167 20.5062ZM20 48L19.022 49.7446L19.9913 50.2879L20.9647 49.752L20 48ZM38 20C38 20.1527 37.9981 20.3049 37.9943 20.4565L41.9931 20.5559C41.9977 20.3711 42 20.1858 42 20H38ZM20 2C29.9411 2 38 10.0589 38 20H42C42 7.84974 32.1503 -2 20 -2V2ZM2 20C2 10.0589 10.0589 2 20 2V-2C7.84974 -2 -2 7.84974 -2 20H2ZM2.00566 20.4566C2.0019 20.3049 2 20.1527 2 20H-2C-2 20.1858 -1.99769 20.3711 -1.9931 20.5559L2.00566 20.4566ZM2 21.0125C2 20.8598 2.0019 20.7076 2.00566 20.5559L-1.9931 20.4566C-1.99769 20.6413 -2 20.8266 -2 21.0125H2ZM20.978 46.2554C16.7234 43.8704 11.9202 40.0428 8.20229 35.5057C4.46346 30.9431 2 25.8852 2 21.0125H-2C-2 27.1854 1.07697 33.1213 5.10836 38.041C9.16071 42.9863 14.3574 47.1296 19.022 49.7446L20.978 46.2554ZM38 21.0125C38 25.8932 35.5695 30.9532 31.8551 35.5097C28.1598 40.0429 23.3617 43.8659 19.0353 46.248L20.9647 49.752C25.7192 47.1341 30.9211 42.9862 34.9555 38.037C38.9709 33.1112 42 27.1774 42 21.0125H38ZM37.9943 20.5559C37.9981 20.7076 38 20.8598 38 21.0125H42C42 20.8267 41.9977 20.6413 41.9931 20.4565L37.9943 20.5559Z" fill="#68A37B" mask="url(#path-1-inside-1_404_9866)"/>
<circle cx="20" cy="20" r="16" fill="white"/>
<path d="M28.1472 29H11.7318C10.9621 29 10.4809 28.1668 10.8657 27.5001L14.0477 21.9874C14.4174 21.3469 15.3302 21.3154 15.7432 21.9287L16.4433 22.9682C16.8396 23.5568 17.7058 23.5568 18.1022 22.9682L21.2812 18.2474C21.6804 17.6547 22.5544 17.6598 22.9466 18.2571L28.9831 27.4512C29.4197 28.1162 28.9427 29 28.1472 29Z" stroke="#68A37B" stroke-width="2" stroke-linecap="round"/>
<circle cx="16" cy="15" r="3" stroke="#68A37B" stroke-width="2"/>
</svg>
