<svg width="24" height="24" viewBox="0 0 24 24" fill="none" xmlns="http://www.w3.org/2000/svg">
<g id="Frame 10">
<path id="Vector 11" d="M4 20V10.2147C4 9.92001 4.12994 9.64037 4.35513 9.45036L11.3551 3.54411C11.7276 3.22983 12.2724 3.22983 12.6449 3.54411L19.6449 9.45036C19.8701 9.64037 20 9.92001 20 10.2147V20C20 20.5523 19.5523 21 19 21H5C4.44772 21 4 20.5523 4 20Z" stroke="#D6D6DD" stroke-width="2" stroke-linecap="round"/>
<path id="Vector 12" d="M9 14V20C9 20.5523 9.44772 21 10 21H14C14.5523 21 15 20.5523 15 20V14C15 13.4477 14.5523 13 14 13H10C9.44772 13 9 13.4477 9 14Z" stroke="#D6D6DD" stroke-width="2" stroke-linecap="round"/>
</g>
</svg>
