<svg width="20" height="25" viewBox="0 0 20 25" fill="none" xmlns="http://www.w3.org/2000/svg">
<g clip-path="url(#clip0_368_8209)">
<path d="M11.0351 2.58851C12.647 0.463971 14.8879 0.453613 14.8879 0.453613C14.8879 0.453613 15.2212 2.45104 13.6199 4.3752C11.91 6.42977 9.96657 6.09358 9.96657 6.09358C9.96657 6.09358 9.60164 4.47773 11.0351 2.58851ZM10.1716 7.49277C11.0008 7.49277 12.5399 6.35288 14.5432 6.35288C17.9915 6.35288 19.348 8.80656 19.348 8.80656C19.348 8.80656 16.6948 10.1631 16.6948 13.4546C16.6948 17.1677 20 18.4473 20 18.4473C20 18.4473 17.6896 24.9503 14.5688 24.9503C13.1355 24.9503 12.0212 23.9844 10.5109 23.9844C8.97188 23.9844 7.4446 24.9863 6.44987 24.9863C3.60017 24.9864 0 18.8177 0 13.859C0 8.98046 3.0473 6.42123 5.90555 6.42123C7.76367 6.42123 9.20559 7.49277 10.1716 7.49277Z" fill="#999999"/>
</g>
<defs>
<clipPath id="clip0_368_8209">
<rect width="20" height="24.5337" fill="white" transform="translate(0 0.453125)"/>
</clipPath>
</defs>
</svg>
