<svg width="24" height="24" viewBox="0 0 24 24" fill="none" xmlns="http://www.w3.org/2000/svg">
<path d="M4 7.60714V20C4 20.5523 4.44772 21 5 21H19C19.5523 21 20 20.5523 20 20V7.60714M4 7.60714V7C4 6.44771 4.44772 6 5 6H19C19.5523 6 20 6.44772 20 7V7.60714M4 7.60714H20" stroke="#D6D6DD" stroke-width="2"/>
<path d="M8 7.5V4M16 7.5V4" stroke="#D6D6DD" stroke-width="2" stroke-linecap="round"/>
<circle cx="8" cy="12" r="1" fill="#D6D6DD"/>
<circle cx="12" cy="12" r="1" fill="#D6D6DD"/>
<circle cx="16" cy="12" r="1" fill="#D6D6DD"/>
<circle cx="16" cy="17" r="1" fill="#D6D6DD"/>
<circle cx="12" cy="17" r="1" fill="#D6D6DD"/>
<circle cx="8" cy="17" r="1" fill="#D6D6DD"/>
</svg>
