<?xml version="1.0" ?><svg data-name="Layer 1" id="Layer_1" viewBox="0 0 390 441" xmlns="http://www.w3.org/2000/svg"><defs><style>.cls-1{fill:#fff;}</style></defs><title/><line class="cls-1" x1="46" x2="46" y1="195" y2="109"/><line x1="46" x2="46" y1="303" y2="220.5"/><path d="M525,243V194a30.09,30.09,0,0,1,30-30H847a30.09,30.09,0,0,1,30,30V575a30.09,30.09,0,0,1-30,30H555a30.09,30.09,0,0,1-30-30V499" transform="translate(-487 -164)"/><rect height="28" rx="12" ry="12" width="77" x="3" y="106"/><rect class="cls-1" height="28" rx="12" ry="12" width="77" y="305.5"/><rect class="cls-1" height="28" rx="12" ry="12" width="77" x="3" y="191"/><rect class="cls-1" height="28" rx="12" ry="12" width="77" x="3" y="78"/><rect height="28" rx="12" ry="12" width="77" x="5" y="332.5"/><rect height="28" rx="12" ry="12" width="77" x="5" y="217"/></svg>