<svg width="24" height="25" viewBox="0 0 24 25" fill="none" xmlns="http://www.w3.org/2000/svg">
<g clip-path="url(#clip0_368_8195)">
<path d="M23.9875 12.5097C23.9875 11.5035 23.9059 10.7693 23.7292 10.0078H12.2393V14.5493H18.9836C18.8477 15.678 18.1134 17.3777 16.4817 18.5198L16.4588 18.6718L20.0917 21.4862L20.3434 21.5113C22.6549 19.3765 23.9875 16.2354 23.9875 12.5097Z" fill="#4285F4"/>
<path d="M12.2391 24.4756C15.5433 24.4756 18.3171 23.3877 20.3432 21.5114L16.4815 18.5198C15.4481 19.2405 14.0611 19.7436 12.2391 19.7436C9.00291 19.7436 6.25622 17.6089 5.27711 14.6582L5.13359 14.6704L1.35604 17.5939L1.30664 17.7312C3.31906 21.7288 7.45273 24.4756 12.2391 24.4756Z" fill="#34A853"/>
<path d="M5.27726 14.6579C5.01892 13.8965 4.8694 13.0805 4.8694 12.2375C4.8694 11.3944 5.01892 10.5786 5.26367 9.81718L5.25683 9.65501L1.43194 6.68457L1.3068 6.7441C0.477385 8.40301 0.00146484 10.2659 0.00146484 12.2375C0.00146484 14.2092 0.477385 16.072 1.3068 17.7309L5.27726 14.6579Z" fill="#FBBC05"/>
<path d="M12.2391 4.7319C14.5371 4.7319 16.0871 5.72452 16.971 6.55402L20.4248 3.18182C18.3036 1.21018 15.5433 0 12.2391 0C7.45273 0 3.31906 2.74668 1.30664 6.74432L5.26351 9.8174C6.25622 6.86674 9.00291 4.7319 12.2391 4.7319Z" fill="#EB4335"/>
</g>
<defs>
<clipPath id="clip0_368_8195">
<rect width="24" height="24.5599" fill="white"/>
</clipPath>
</defs>
</svg>
