<svg width="16" height="16" viewBox="0 0 16 16" fill="none" xmlns="http://www.w3.org/2000/svg">
<path d="M2.75879 8.5371L2.2956 9.01658L2.2956 9.01658L2.75879 8.5371ZM2.75879 3.20695L2.2956 2.72747L2.2956 2.72747L2.75879 3.20695ZM13.2412 3.20694L13.7044 2.72747L13.7044 2.72747L13.2412 3.20694ZM13.2412 8.5371L12.778 8.05762L12.778 8.05762L13.2412 8.5371ZM12 9.73614L12.4632 10.2156L12 9.73614ZM12 9.73616L12.4632 10.2156L12 9.73616ZM8.46318 13.1528L8.92637 13.6323L8.46318 13.1528ZM7.5368 13.1528L7.07361 13.6323L7.5368 13.1528ZM4 9.73616L3.53681 10.2156L4 9.73616ZM4.00001 9.73614L4.4632 9.25666L4.00001 9.73614ZM4.4632 9.25666L3.22198 8.05762L2.2956 9.01658L3.53682 10.2156L4.4632 9.25666ZM3.22198 8.05762C1.98531 6.86296 1.98531 4.88108 3.22198 3.68642L2.2956 2.72747C0.516319 4.4463 0.516323 7.29774 2.2956 9.01658L3.22198 8.05762ZM3.22198 3.68642C4.39966 2.54875 6.26699 2.54875 7.44467 3.68642L8.37105 2.72747C6.67664 1.09063 3.99 1.09063 2.2956 2.72747L3.22198 3.68642ZM8.55531 3.68643C9.73299 2.54875 11.6003 2.54875 12.778 3.68642L13.7044 2.72747C12.01 1.09063 9.32333 1.09063 7.62893 2.72747L8.55531 3.68643ZM12.778 3.68642C14.0147 4.88108 14.0147 6.86296 12.778 8.05762L13.7044 9.01657C15.4837 7.29774 15.4837 4.4463 13.7044 2.72747L12.778 3.68642ZM12.778 8.05762L11.5368 9.25666L12.4632 10.2156L13.7044 9.01657L12.778 8.05762ZM11.5368 9.25668L7.99999 12.6733L8.92637 13.6323L12.4632 10.2156L11.5368 9.25668ZM7.99999 12.6733L4.46319 9.25668L3.53681 10.2156L7.07361 13.6323L7.99999 12.6733ZM11.5368 9.25666C11.1097 9.66926 11.3948 10.4028 12 10.4028V9.06949C12.6051 9.06949 12.8903 9.80303 12.4632 10.2156L11.5368 9.25666ZM12 10.4028C11.4005 10.4028 11.1056 9.67321 11.5368 9.25668L12.4632 10.2156C12.8943 9.79911 12.5995 9.06949 12 9.06949V10.4028ZM7.44467 3.68643C7.75441 3.98564 8.24555 3.98566 8.55531 3.68643L7.62893 2.72747C7.83591 2.52752 8.16409 2.52754 8.37105 2.72747L7.44467 3.68643ZM7.99999 12.6733L7.99999 12.6733L7.07361 13.6323C7.59033 14.1315 8.40964 14.1315 8.92637 13.6323L7.99999 12.6733ZM4.46319 9.25668C4.88897 9.668 4.60698 10.4028 4 10.4028V9.06949C3.39301 9.06949 3.11102 9.80431 3.53681 10.2156L4.46319 9.25668ZM3.53682 10.2156C3.10564 9.7991 3.4005 9.06949 4 9.06949V10.4028C4.59951 10.4028 4.89437 9.6732 4.4632 9.25666L3.53682 10.2156Z" fill="#737381"/>
</svg>
