<svg width="24" height="24" viewBox="0 0 24 24" fill="none" xmlns="http://www.w3.org/2000/svg">
<path fill-rule="evenodd" clip-rule="evenodd" d="M12.1379 4.81017C12.0608 4.88464 11.9386 4.88464 11.8615 4.81017C9.70742 2.72929 6.29194 2.72929 4.13788 4.81017C1.87592 6.99529 1.87591 10.6203 4.13788 12.8054L5.99968 14.6039L6.13788 14.7375C6.1381 14.7377 6.13832 14.7379 6.13854 14.7381L11.3049 19.7289C11.6924 20.1033 12.3069 20.1033 12.6945 19.7289L17.8615 14.7375L17.9997 14.6039L19.8615 12.8054C22.1234 10.6203 22.1234 6.99529 19.8615 4.81017C17.7074 2.72929 14.2919 2.72929 12.1379 4.81017Z" fill="#151515"/>
<path d="M4.13788 4.81017L3.4431 4.09096H3.4431L4.13788 4.81017ZM4.13788 12.8054L3.44309 13.5246L4.13788 12.8054ZM5.99968 14.6039L6.69447 13.8847L5.99968 14.6039ZM6.13788 14.7375L5.4431 15.4567L5.44373 15.4573L6.13788 14.7375ZM6.13854 14.7381L6.83333 14.0189L6.83269 14.0183L6.13854 14.7381ZM17.8615 14.7375L17.1667 14.0182L17.1667 14.0182L17.8615 14.7375ZM17.9997 14.6039L18.6945 15.3232L18.6945 15.3232L17.9997 14.6039ZM19.8615 12.8054L19.1667 12.0862L19.8615 12.8054ZM19.8615 4.81017L20.5563 4.09096V4.09096L19.8615 4.81017ZM11.3049 19.7289L10.6101 20.4481L11.3049 19.7289ZM12.6945 19.7289L11.9997 19.0097L12.6945 19.7289ZM4.83266 5.52939C6.59919 3.82289 9.40018 3.82289 11.1667 5.52939L12.5563 4.09096C10.0147 1.6357 5.9847 1.6357 3.4431 4.09096L4.83266 5.52939ZM4.83266 12.0862C2.97765 10.2942 2.97765 7.32138 4.83266 5.52939L3.4431 4.09096C0.774178 6.6692 0.774176 10.9464 3.44309 13.5246L4.83266 12.0862ZM6.69447 13.8847L4.83266 12.0862L3.44309 13.5246L5.3049 15.3232L6.69447 13.8847ZM6.83266 14.0182L6.69447 13.8847L5.3049 15.3232L5.4431 15.4567L6.83266 14.0182ZM6.83269 14.0183L6.83203 14.0176L5.44373 15.4573L5.44439 15.4579L6.83269 14.0183ZM11.9997 19.0097L6.83333 14.0189L5.44376 15.4573L10.6101 20.4481L11.9997 19.0097ZM17.1667 14.0182L11.9997 19.0097L13.3893 20.4481L18.5563 15.4567L17.1667 14.0182ZM17.3049 13.8847L17.1667 14.0182L18.5563 15.4567L18.6945 15.3232L17.3049 13.8847ZM19.1667 12.0862L17.3049 13.8847L18.6945 15.3232L20.5563 13.5246L19.1667 12.0862ZM19.1667 5.52939C21.0217 7.32138 21.0217 10.2942 19.1667 12.0862L20.5563 13.5246C23.2252 10.9464 23.2252 6.6692 20.5563 4.09096L19.1667 5.52939ZM12.8327 5.52939C14.5992 3.82288 17.4002 3.82289 19.1667 5.52939L20.5563 4.09096C18.0147 1.6357 13.9847 1.6357 11.4431 4.09095L12.8327 5.52939ZM10.6101 20.4481C11.3852 21.1969 12.6142 21.1969 13.3893 20.4481L11.9997 19.0097L10.6101 20.4481ZM11.4431 4.09096C11.7535 3.79105 12.2458 3.79104 12.5563 4.09096L11.1667 5.52939C11.6313 5.97824 12.368 5.97822 12.8327 5.52939L11.4431 4.09096Z" fill="#151515"/>
</svg>
