<svg width="28" height="26" viewBox="0 0 28 26" fill="none" xmlns="http://www.w3.org/2000/svg">
<path d="M14.0625 0.266861C0.837016 0.197261 -5.29528 14.1602 6.73232 20.363C6.52082 21.0917 5.37422 25.052 5.32832 25.3631C5.29562 25.6064 5.48102 25.8104 5.78162 25.706C6.21602 25.6451 10.8156 22.4141 11.6118 21.8531C30.6837 24.1358 34.4391 1.14286 14.0625 0.266861Z" fill="#3D1D1C"/>
<path d="M7.22995 14.1832C7.20415 15.1831 5.66515 15.187 5.63785 14.1832V9.45431H4.39585C3.36715 9.42821 3.36505 7.92221 4.39585 7.89551H8.47195C9.50125 7.92281 9.50245 9.42701 8.47195 9.45431H7.22995V14.1832ZM13.9199 14.8231C13.5626 15.0115 12.8714 14.9656 12.7514 14.5813L12.3572 13.5493H9.92995L9.53545 14.5819C9.41605 14.9656 8.72455 15.0118 8.36755 14.8231C8.14795 14.722 7.93705 14.4436 8.17885 13.6927L10.0829 8.68121C10.4726 7.65341 11.8127 7.64891 12.2048 8.68211L14.108 13.6915C14.3501 14.4439 14.1392 14.7223 13.9199 14.8231ZM17.9429 14.8273H15.389C14.9684 14.8273 14.6261 14.5 14.6261 14.0977V8.69141C14.6534 7.64381 16.2233 7.64051 16.2512 8.69141V13.3678H17.9429C18.9476 13.3927 18.9497 14.8018 17.9429 14.8273ZM24.1742 14.2279C24.1034 14.9104 23.1443 15.1618 22.7507 14.5972L20.8841 12.1237L20.6078 12.4V14.1367C20.5817 15.1843 19.043 15.1882 19.0154 14.137V8.69141C19.043 7.64291 20.5793 7.64081 20.6075 8.69141V10.4023L22.8284 8.18141C23.0948 7.91111 23.558 7.96931 23.8178 8.23931C24.0881 8.49611 24.1466 8.96471 23.8763 9.22871L22.0622 11.0425L24.0215 13.6384C24.149 13.8064 24.2039 14.0188 24.1742 14.2279Z" fill="#FFE812"/>
<path d="M10.3486 12.14H11.9386L11.1436 9.88135L10.3486 12.14Z" fill="#3D1D1C"/>
</svg>
