<svg width="24" height="24" viewBox="0 0 24 24" fill="none" xmlns="http://www.w3.org/2000/svg">
<path d="M4 21V19.2222M20 14.7778H5C4.44772 14.7778 4 15.2255 4 15.7778V19.2222M20 14.7778V19.2222M20 14.7778V13M20 21V19.2222M20 19.2222H4" stroke="black" stroke-width="2" stroke-linecap="round"/>
<path d="M16 16V19" stroke="black" stroke-width="2" stroke-linecap="round"/>
<path d="M4 9V4C4 3.44772 4.44772 3 5 3H19C19.5523 3 20 3.44772 20 4V9C20 9.55228 19.5523 10 19 10H5C4.44772 10 4 9.55228 4 9Z" stroke="black" stroke-width="2" stroke-linecap="round"/>
</svg>
