<svg width="24" height="24" viewBox="0 0 24 24" fill="none" xmlns="http://www.w3.org/2000/svg">
<path d="M16 15V21" stroke="#D6D6DD" stroke-width="2" stroke-linecap="round"/>
<path d="M14 12.8462C14 15.5651 11.5 17.7692 9 19C6.5 17.7692 4 15.5651 4 12.8462C4 10.3724 6.06948 6.28711 8.32556 3.71658C8.68589 3.30604 9.31411 3.30604 9.67444 3.71658C11.9305 6.28711 14 10.3724 14 12.8462Z" stroke="#D6D6DD" stroke-width="2"/>
<path fill-rule="evenodd" clip-rule="evenodd" d="M13.2443 15.4016C12.8877 15.992 12.4239 16.5391 11.8938 17.0353C12.0858 17.3087 12.3001 17.5648 12.5276 17.8024C13.3867 18.7 14.501 19.4096 15.5809 19.9081L16 20.1015L16.419 19.9081C17.499 19.4096 18.6132 18.7 19.4724 17.8024C20.3303 16.9061 21 15.7482 21 14.3847C21 13.2387 20.5175 11.8698 19.8762 10.6097C19.2208 9.32204 18.333 8.01914 17.3877 6.98201C16.6399 6.1616 15.3601 6.1616 14.6123 6.982C14.0496 7.5993 13.5073 8.31075 13.0223 9.0571C13.4083 9.94876 13.7005 10.8195 13.8609 11.6066C13.8758 11.5768 13.8909 11.5469 13.9061 11.517C14.4645 10.4199 15.2159 9.31034 16 8.42967C16.7841 9.31034 17.5355 10.4199 18.0938 11.517C18.6877 12.6838 19 13.7128 19 14.3847C19 15.0605 18.6696 15.7487 18.0276 16.4195C17.4848 16.9866 16.7662 17.4884 16 17.8867C15.2337 17.4884 14.5152 16.9866 13.9724 16.4195C13.6506 16.0833 13.4071 15.7427 13.2443 15.4016Z" fill="#D6D6DD"/>
<path d="M9 14V21" stroke="#D6D6DD" stroke-width="2" stroke-linecap="round"/>
</svg>
