<svg width="24" height="24" viewBox="0 0 24 24" fill="none" xmlns="http://www.w3.org/2000/svg">
<g clip-path="url(#clip0_247_6543)">
<path d="M10 10.9996L9.39942 11.7992L10 12.2503L10.6006 11.7992L10 10.9996ZM17.0866 12.1184L16.2699 12.6954L16.4929 13.0111L16.8703 13.0947L17.0866 12.1184ZM3 15C3 12.7909 4.79086 11 7 11V9C3.68629 9 1 11.6863 1 15H3ZM7 11C7.90163 11 8.73099 11.2971 9.39942 11.7992L10.6006 10.2001C9.59769 9.44677 8.34958 9 7 9V11ZM10.6006 11.7992C11.269 11.2971 12.0984 11 13 11V9C11.6504 9 10.4023 9.44677 9.39942 10.2001L10.6006 11.7992ZM13 11C14.3499 11 15.5439 11.6677 16.2699 12.6954L17.9034 11.5414C16.8187 10.006 15.0269 9 13 9V11ZM16.8703 13.0947C18.6612 13.4916 20 15.0906 20 17H22C22 14.1329 19.9899 11.7375 17.303 11.1421L16.8703 13.0947ZM20 17C20 19.2091 18.2091 21 16 21V23C19.3137 23 22 20.3137 22 17H20ZM16 21H6V23H16V21ZM6 21C4.34315 21 3 19.6569 3 18H1C1 20.7614 3.23858 23 6 23V21ZM3 18V15H1V18H3Z" fill="#151515"/>
<path fill-rule="evenodd" clip-rule="evenodd" d="M14.5591 1.37392C14.2722 1.16016 13.8965 0.998413 13.4663 1.00001C13.0194 1.00167 12.6053 1.18002 12.276 1.49088L12.2372 1.52781C10.8597 2.84735 10 4.70818 10 6.76812C10 8.10055 10.3591 9.34909 10.9859 10.4222C11.6021 10.1507 12.2834 10 13 10C13.0373 10 13.0746 10.0004 13.1117 10.0012C12.4151 9.10957 12 7.98733 12 6.76812C12 5.35769 12.5544 4.07826 13.4594 3.13334C13.4705 3.16942 13.476 3.20591 13.4757 3.24038L13.4755 3.29259C13.4755 7.29994 16.7241 10.5485 20.7315 10.5485L20.7837 10.5484C20.8182 10.5481 20.8546 10.5536 20.8907 10.5646C19.9458 11.4697 18.6663 12.0241 17.2559 12.0241C17.175 12.0241 17.0944 12.0222 17.0143 12.0186C17.0388 12.0516 17.0629 12.0848 17.0866 12.1184C18.0995 12.3429 18.9968 12.8745 19.6758 13.6105C20.774 13.2221 21.7507 12.577 22.5331 11.7482C22.844 11.4188 23.0223 11.0048 23.024 10.5579C23.0256 10.1277 22.8639 9.75197 22.6502 9.46508C22.2352 8.90809 21.525 8.54307 20.7696 8.54841L20.7315 8.54854C17.8287 8.54854 15.4755 6.19537 15.4755 3.29259L15.4757 3.25452C15.481 2.49917 15.1161 1.78894 14.5591 1.37392Z" fill="#151515"/>
</g>
<defs>
<clipPath id="clip0_247_6543">
<rect width="24" height="24" fill="white"/>
</clipPath>
</defs>
</svg>
