<svg width="24" height="24" viewBox="0 0 24 24" fill="none" xmlns="http://www.w3.org/2000/svg">
<g clip-path="url(#clip0_247_6458)">
<path d="M10 3.99963L9.39942 4.7992L10 5.25031L10.6006 4.7992L10 3.99963ZM17.0866 5.11841L16.2699 5.69538L16.4929 6.01109L16.8703 6.09472L17.0866 5.11841ZM3 8C3 5.79086 4.79086 4 7 4V2C3.68629 2 1 4.68629 1 8H3ZM7 4C7.90163 4 8.73099 4.29712 9.39942 4.7992L10.6006 3.20007C9.59769 2.44677 8.34958 2 7 2V4ZM10.6006 4.7992C11.269 4.29712 12.0984 4 13 4V2C11.6504 2 10.4023 2.44677 9.39942 3.20007L10.6006 4.7992ZM13 4C14.3499 4 15.5439 4.66773 16.2699 5.69538L17.9034 4.54144C16.8187 3.00599 15.0269 2 13 2V4ZM16.8703 6.09472C18.6612 6.49161 20 8.09064 20 10H22C22 7.13285 19.9899 4.73754 17.303 4.1421L16.8703 6.09472ZM20 10C20 12.2091 18.2091 14 16 14V16C19.3137 16 22 13.3137 22 10H20ZM16 14H6V16H16V14ZM6 14C4.34315 14 3 12.6569 3 11H1C1 13.7614 3.23858 16 6 16V14ZM3 11V8H1V11H3Z" fill="#151515"/>
<path d="M5 18H15" stroke="#151515" stroke-width="2" stroke-linecap="round"/>
<path d="M10 21H20" stroke="#151515" stroke-width="2" stroke-linecap="round"/>
</g>
<defs>
<clipPath id="clip0_247_6458">
<rect width="24" height="24" fill="white"/>
</clipPath>
</defs>
</svg>
