<svg width="24" height="24" viewBox="0 0 24 24" fill="none" xmlns="http://www.w3.org/2000/svg">
<g clip-path="url(#clip0_247_6456)">
<path fill-rule="evenodd" clip-rule="evenodd" d="M3 8C3 5.79086 4.79086 4 7 4C7.90163 4 8.73099 4.29712 9.39942 4.7992L10 5.25031L10.6006 4.7992C11.269 4.29712 12.0984 4 13 4C14.3499 4 15.5439 4.66773 16.2699 5.69538L16.4929 6.01109L16.8703 6.09472C18.6612 6.49161 20 8.09064 20 10C20 11.2075 19.4649 12.2901 18.6189 13.0235C19.3654 12.9069 20.1386 13.2224 20.5815 13.8744C21.4664 12.8291 22 11.4769 22 10C22 7.26616 20.1725 4.96131 17.6733 4.23669C16.5748 2.87425 14.8895 2 13 2C11.9082 2 10.8829 2.29238 10 2.8029C9.11714 2.29238 8.09177 2 7 2C3.68629 2 1 4.68629 1 8V11C1 13.7614 3.23858 16 6 16H10.2676C9.92294 15.4017 9.89788 14.641 10.2679 14H6C4.34315 14 3 12.6569 3 11V8Z" fill="#151515"/>
<path d="M15.4639 13V21" stroke="#151515" stroke-width="2" stroke-linecap="round"/>
<path d="M12 19L18.9282 15" stroke="#151515" stroke-width="2" stroke-linecap="round"/>
<path d="M12 15L18.9282 19" stroke="#151515" stroke-width="2" stroke-linecap="round"/>
</g>
<defs>
<clipPath id="clip0_247_6456">
<rect width="24" height="24" fill="white"/>
</clipPath>
</defs>
</svg>
