<svg width="24" height="24" viewBox="0 0 24 24" fill="none" xmlns="http://www.w3.org/2000/svg">
<g clip-path="url(#clip0_247_6539)">
<path d="M5.77503 5.50001L6.46679 6.22214V6.22214L5.77503 5.50001ZM8.06538 5.90967L7.07259 5.78977L8.06538 5.90967ZM18.0903 15.9346L17.9705 14.9418L18.0903 15.9346ZM19.2075 17.3909L18.4072 16.7913L19.2075 17.3909ZM17.9705 14.9418C17.6527 14.9802 17.3289 15 17 15V17C17.4092 17 17.8131 16.9754 18.2102 16.9274L17.9705 14.9418ZM17 15C12.5817 15 9 11.4183 9 7.00001H7C7 12.5229 11.4772 17 17 17V15ZM9 7.00001C9 6.67112 9.01979 6.34728 9.05816 6.02956L7.07259 5.78977C7.02463 6.18688 7 6.59079 7 7.00001H9ZM6.46679 6.22214C6.70101 5.99777 6.94881 5.78751 7.20881 5.59275L6.0097 3.99208C5.685 4.23532 5.37563 4.49782 5.08327 4.77788L6.46679 6.22214ZM4 12C4 9.72856 4.94535 7.6796 6.46679 6.22214L5.08327 4.77788C3.18438 6.59692 2 9.161 2 12H4ZM12 20C7.58172 20 4 16.4183 4 12H2C2 17.5229 6.47715 22 12 22V20ZM18.4072 16.7913C16.9464 18.7413 14.6203 20 12 20V22C15.2769 22 18.1856 20.4228 20.0079 17.9904L18.4072 16.7913ZM9.05816 6.02956C9.15302 5.24412 8.82193 4.49807 8.27363 4.05047C7.68888 3.57311 6.78879 3.40844 6.0097 3.99208L7.20881 5.59275C7.21033 5.59161 7.1979 5.60099 7.17114 5.60918C7.14416 5.61743 7.1136 5.62108 7.08345 5.6191C7.02341 5.61516 7.00022 5.59272 7.00886 5.59978C7.01782 5.6071 7.03946 5.6302 7.05598 5.67059C7.07149 5.70851 7.07746 5.74942 7.07259 5.78977L9.05816 6.02956ZM18.2102 16.9274C18.2506 16.9226 18.2915 16.9285 18.3294 16.944C18.3697 16.9605 18.3928 16.9822 18.4001 16.9911C18.4072 16.9998 18.3848 16.9766 18.3808 16.9166C18.3789 16.8865 18.3825 16.8559 18.3908 16.829C18.399 16.8022 18.4083 16.7898 18.4072 16.7913L20.0079 17.9904C20.5915 17.2114 20.4269 16.3113 19.9496 15.7265C19.502 15.1782 18.7559 14.847 17.9705 14.9418L18.2102 16.9274Z" fill="#151515"/>
</g>
<defs>
<clipPath id="clip0_247_6539">
<rect width="24" height="24" fill="white"/>
</clipPath>
</defs>
</svg>
